<svg xmlns="http://www.w3.org/2000/svg" xmlns:xlink="http://www.w3.org/1999/xlink" width="121" zoomAndPan="magnify" viewBox="0 0 90.75 30.000001" height="40" preserveAspectRatio="xMidYMid meet" version="1.0"><defs><g/><clipPath id="77cea3ebff"><path d="M 1.34375 0 L 89.164062 0 L 89.164062 29.03125 L 1.34375 29.03125 Z M 1.34375 0 " clip-rule="nonzero"/></clipPath><clipPath id="b1f77a8d2a"><path d="M 20.183594 10.28125 L 28.894531 10.28125 L 28.894531 21.894531 L 20.183594 21.894531 Z M 20.183594 10.28125 " clip-rule="nonzero"/></clipPath><clipPath id="9077165eba"><path d="M 0.464844 1 L 5 1 L 5 6 L 0.464844 6 Z M 0.464844 1 " clip-rule="nonzero"/></clipPath><clipPath id="4de067e495"><rect x="0" width="24" y="0" height="9"/></clipPath><clipPath id="d7bcb65147"><path d="M 0.464844 1 L 3 1 L 3 5 L 0.464844 5 Z M 0.464844 1 " clip-rule="nonzero"/></clipPath><clipPath id="a096d0c367"><rect x="0" width="12" y="0" height="6"/></clipPath></defs><g clip-path="url(#77cea3ebff)"><path fill="#ffffff" d="M 1.34375 0 L 89.164062 0 L 89.164062 29.03125 L 1.34375 29.03125 Z M 1.34375 0 " fill-opacity="1" fill-rule="nonzero"/><path fill="#191919" d="M 1.34375 0 L 89.164062 0 L 89.164062 29.03125 L 1.34375 29.03125 Z M 1.34375 0 " fill-opacity="1" fill-rule="nonzero"/></g><g clip-path="url(#b1f77a8d2a)"><path fill="#fdc448" d="M 21.601562 17.90625 L 21.199219 17.398438 C 20.183594 16.105469 20.617188 14.203125 22.09375 13.480469 L 28.597656 10.285156 L 28.597656 11.597656 C 28.597656 12.605469 28.023438 13.523438 27.121094 13.964844 L 22.792969 16.074219 C 22.480469 16.226562 22.203125 16.449219 21.996094 16.734375 C 21.785156 17.015625 21.605469 17.402344 21.621094 17.894531 C 21.761719 17.78125 21.921875 17.679688 22.09375 17.59375 L 28.597656 14.398438 L 28.597656 15.714844 C 28.597656 16.722656 28.023438 17.640625 27.117188 18.082031 L 22.792969 20.1875 C 22.480469 20.339844 22.203125 20.566406 21.996094 20.847656 C 21.78125 21.136719 21.597656 21.539062 21.621094 22.046875 L 21.199219 21.511719 C 20.308594 20.375 20.535156 18.773438 21.601562 17.90625 Z M 25.828125 20.605469 L 28.597656 22.050781 L 28.59375 18.445312 L 25.832031 19.835938 C 25.519531 19.996094 25.515625 20.445312 25.828125 20.605469 Z M 25.828125 20.605469 " fill-opacity="1" fill-rule="nonzero"/></g><path stroke-linecap="round" transform="matrix(0, 0.725806, -0.725806, 0, 31.039613, 10.284782)" fill="none" stroke-linejoin="miter" d="M 0.501036 0.501279 L 15.731939 0.501279 " stroke="#fdc448" stroke-width="1" stroke-opacity="1" stroke-miterlimit="4"/><g transform="matrix(1, 0, 0, 1, 32, 10)"><g clip-path="url(#4de067e495)"><g clip-path="url(#9077165eba)"><g fill="#ffffff" fill-opacity="1"><g transform="translate(0.495473, 5.500001)"><g><path d="M 2.90625 -3.796875 L 3.78125 -3.796875 C 3.863281 -3.796875 3.90625 -3.753906 3.90625 -3.671875 L 3.90625 -0.125 C 3.90625 -0.0390625 3.863281 0 3.78125 0 L 3.296875 0 C 3.210938 0 3.171875 -0.0390625 3.171875 -0.125 L 3.171875 -2.921875 L 3.140625 -2.921875 L 2.546875 -0.9375 C 2.523438 -0.863281 2.472656 -0.828125 2.390625 -0.828125 L 1.90625 -0.828125 C 1.832031 -0.828125 1.78125 -0.863281 1.75 -0.9375 L 1.140625 -2.921875 L 1.109375 -2.921875 L 1.109375 -0.125 C 1.109375 -0.0703125 1.097656 -0.0351562 1.078125 -0.015625 C 1.066406 -0.00390625 1.039062 0 1 0 L 0.515625 0 C 0.429688 0 0.390625 -0.0390625 0.390625 -0.125 L 0.390625 -3.671875 C 0.390625 -3.753906 0.429688 -3.796875 0.515625 -3.796875 L 1.390625 -3.796875 C 1.441406 -3.796875 1.476562 -3.769531 1.5 -3.71875 L 2.125 -1.625 L 2.15625 -1.625 L 2.796875 -3.71875 C 2.804688 -3.769531 2.84375 -3.796875 2.90625 -3.796875 Z M 2.90625 -3.796875 "/></g></g></g></g><g fill="#ffffff" fill-opacity="1"><g transform="translate(4.917011, 5.500001)"><g><path d="M 0.78125 0 L 0.21875 0 C 0.144531 0 0.117188 -0.0390625 0.140625 -0.125 L 1.078125 -3.671875 C 1.097656 -3.753906 1.15625 -3.796875 1.25 -3.796875 L 2.03125 -3.796875 C 2.132812 -3.796875 2.195312 -3.753906 2.21875 -3.671875 L 3.140625 -0.125 C 3.171875 -0.0390625 3.148438 0 3.078125 0 L 2.515625 0 C 2.460938 0 2.425781 -0.00390625 2.40625 -0.015625 C 2.394531 -0.0351562 2.390625 -0.0703125 2.390625 -0.125 L 2.21875 -0.78125 L 1.0625 -0.78125 L 0.90625 -0.125 C 0.894531 -0.0703125 0.878906 -0.0351562 0.859375 -0.015625 C 0.847656 -0.00390625 0.820312 0 0.78125 0 Z M 1.640625 -3.078125 L 1.203125 -1.375 L 2.078125 -1.375 L 1.65625 -3.078125 Z M 1.640625 -3.078125 "/></g></g></g><g fill="#ffffff" fill-opacity="1"><g transform="translate(8.340898, 5.500001)"><g><path d="M 1.015625 0 L 0.515625 0 C 0.429688 0 0.390625 -0.0390625 0.390625 -0.125 L 0.390625 -3.671875 C 0.390625 -3.753906 0.429688 -3.796875 0.515625 -3.796875 L 1.015625 -3.796875 C 1.097656 -3.796875 1.140625 -3.753906 1.140625 -3.671875 L 1.140625 -2.28125 C 1.140625 -2.238281 1.160156 -2.21875 1.203125 -2.21875 L 2.203125 -2.21875 C 2.242188 -2.21875 2.265625 -2.238281 2.265625 -2.28125 L 2.265625 -3.671875 C 2.265625 -3.753906 2.304688 -3.796875 2.390625 -3.796875 L 2.890625 -3.796875 C 2.972656 -3.796875 3.015625 -3.753906 3.015625 -3.671875 L 3.015625 -0.125 C 3.015625 -0.0390625 2.972656 0 2.890625 0 L 2.390625 0 C 2.304688 0 2.265625 -0.0390625 2.265625 -0.125 L 2.265625 -1.5 C 2.265625 -1.550781 2.242188 -1.578125 2.203125 -1.578125 L 1.203125 -1.578125 C 1.160156 -1.578125 1.140625 -1.550781 1.140625 -1.5 L 1.140625 -0.125 C 1.140625 -0.0390625 1.097656 0 1.015625 0 Z M 1.015625 0 "/></g></g></g><g fill="#ffffff" fill-opacity="1"><g transform="translate(11.876944, 5.500001)"><g><path d="M 2.90625 -3.796875 L 3.78125 -3.796875 C 3.863281 -3.796875 3.90625 -3.753906 3.90625 -3.671875 L 3.90625 -0.125 C 3.90625 -0.0390625 3.863281 0 3.78125 0 L 3.296875 0 C 3.210938 0 3.171875 -0.0390625 3.171875 -0.125 L 3.171875 -2.921875 L 3.140625 -2.921875 L 2.546875 -0.9375 C 2.523438 -0.863281 2.472656 -0.828125 2.390625 -0.828125 L 1.90625 -0.828125 C 1.832031 -0.828125 1.78125 -0.863281 1.75 -0.9375 L 1.140625 -2.921875 L 1.109375 -2.921875 L 1.109375 -0.125 C 1.109375 -0.0703125 1.097656 -0.0351562 1.078125 -0.015625 C 1.066406 -0.00390625 1.039062 0 1 0 L 0.515625 0 C 0.429688 0 0.390625 -0.0390625 0.390625 -0.125 L 0.390625 -3.671875 C 0.390625 -3.753906 0.429688 -3.796875 0.515625 -3.796875 L 1.390625 -3.796875 C 1.441406 -3.796875 1.476562 -3.769531 1.5 -3.71875 L 2.125 -1.625 L 2.15625 -1.625 L 2.796875 -3.71875 C 2.804688 -3.769531 2.84375 -3.796875 2.90625 -3.796875 Z M 2.90625 -3.796875 "/></g></g></g><g fill="#ffffff" fill-opacity="1"><g transform="translate(16.298483, 5.500001)"><g><path d="M 2.328125 -3.796875 L 2.828125 -3.796875 C 2.910156 -3.796875 2.953125 -3.753906 2.953125 -3.671875 L 2.953125 -0.96875 C 2.953125 -0.65625 2.863281 -0.414062 2.6875 -0.25 C 2.519531 -0.0820312 2.285156 0 1.984375 0 L 1.328125 0 C 1.015625 0 0.773438 -0.0820312 0.609375 -0.25 C 0.441406 -0.414062 0.359375 -0.65625 0.359375 -0.96875 L 0.359375 -3.671875 C 0.359375 -3.753906 0.398438 -3.796875 0.484375 -3.796875 L 0.984375 -3.796875 C 1.066406 -3.796875 1.109375 -3.753906 1.109375 -3.671875 L 1.109375 -1 C 1.109375 -0.875 1.132812 -0.785156 1.1875 -0.734375 C 1.238281 -0.679688 1.328125 -0.65625 1.453125 -0.65625 L 1.859375 -0.65625 C 1.984375 -0.65625 2.070312 -0.679688 2.125 -0.734375 C 2.175781 -0.785156 2.203125 -0.875 2.203125 -1 L 2.203125 -3.671875 C 2.203125 -3.753906 2.242188 -3.796875 2.328125 -3.796875 Z M 2.328125 -3.796875 "/></g></g></g><g fill="#ffffff" fill-opacity="1"><g transform="translate(19.740077, 5.500001)"><g><path d="M 1.203125 -0.65625 L 1.84375 -0.65625 C 1.96875 -0.65625 2.054688 -0.679688 2.109375 -0.734375 C 2.160156 -0.785156 2.1875 -0.875 2.1875 -1 L 2.1875 -2.796875 C 2.1875 -2.921875 2.160156 -3.007812 2.109375 -3.0625 C 2.054688 -3.113281 1.96875 -3.140625 1.84375 -3.140625 L 1.203125 -3.140625 C 1.160156 -3.140625 1.140625 -3.117188 1.140625 -3.078125 L 1.140625 -0.71875 C 1.140625 -0.675781 1.160156 -0.65625 1.203125 -0.65625 Z M 0.390625 -0.125 L 0.390625 -3.671875 C 0.390625 -3.753906 0.429688 -3.796875 0.515625 -3.796875 L 1.96875 -3.796875 C 2.269531 -3.796875 2.503906 -3.710938 2.671875 -3.546875 C 2.847656 -3.378906 2.9375 -3.140625 2.9375 -2.828125 L 2.9375 -0.96875 C 2.9375 -0.65625 2.847656 -0.414062 2.671875 -0.25 C 2.503906 -0.0820312 2.269531 0 1.96875 0 L 0.515625 0 C 0.429688 0 0.390625 -0.0390625 0.390625 -0.125 Z M 0.390625 -0.125 "/></g></g></g></g></g><g transform="matrix(1, 0, 0, 1, 32, 16)"><g clip-path="url(#a096d0c367)"><g clip-path="url(#d7bcb65147)"><g fill="#ffffff" fill-opacity="1"><g transform="translate(0.645903, 4.099358)"><g><path d="M 0.6875 0 L 0.34375 0 C 0.289062 0 0.265625 -0.0234375 0.265625 -0.078125 L 0.265625 -2.53125 C 0.265625 -2.582031 0.289062 -2.609375 0.34375 -2.609375 L 0.6875 -2.609375 C 0.75 -2.609375 0.78125 -2.582031 0.78125 -2.53125 L 0.78125 -1.375 C 0.8125 -1.4375 0.851562 -1.519531 0.90625 -1.625 L 1.53125 -2.53125 C 1.5625 -2.582031 1.613281 -2.609375 1.6875 -2.609375 L 2.09375 -2.609375 C 2.113281 -2.609375 2.128906 -2.597656 2.140625 -2.578125 C 2.148438 -2.566406 2.144531 -2.546875 2.125 -2.515625 L 1.34375 -1.453125 L 2.203125 -0.09375 C 2.222656 -0.0625 2.226562 -0.0351562 2.21875 -0.015625 C 2.207031 -0.00390625 2.179688 0 2.140625 0 L 1.84375 0 C 1.75 0 1.6875 -0.0234375 1.65625 -0.078125 L 1.03125 -1.078125 L 0.78125 -0.78125 L 0.78125 -0.078125 C 0.78125 -0.0234375 0.75 0 0.6875 0 Z M 0.6875 0 "/></g></g></g></g><g fill="#ffffff" fill-opacity="1"><g transform="translate(3.161851, 4.099358)"><g><path d="M 0.6875 0 L 0.34375 0 C 0.289062 0 0.265625 -0.0234375 0.265625 -0.078125 L 0.265625 -2.53125 C 0.265625 -2.582031 0.289062 -2.609375 0.34375 -2.609375 L 0.6875 -2.609375 C 0.75 -2.609375 0.78125 -2.582031 0.78125 -2.53125 L 0.78125 -1.578125 C 0.78125 -1.546875 0.796875 -1.53125 0.828125 -1.53125 L 1.515625 -1.53125 C 1.546875 -1.53125 1.5625 -1.546875 1.5625 -1.578125 L 1.5625 -2.53125 C 1.5625 -2.582031 1.585938 -2.609375 1.640625 -2.609375 L 1.984375 -2.609375 C 2.046875 -2.609375 2.078125 -2.582031 2.078125 -2.53125 L 2.078125 -0.078125 C 2.078125 -0.0234375 2.046875 0 1.984375 0 L 1.640625 0 C 1.585938 0 1.5625 -0.0234375 1.5625 -0.078125 L 1.5625 -1.03125 C 1.5625 -1.0625 1.546875 -1.078125 1.515625 -1.078125 L 0.828125 -1.078125 C 0.796875 -1.078125 0.78125 -1.0625 0.78125 -1.03125 L 0.78125 -0.078125 C 0.78125 -0.0234375 0.75 0 0.6875 0 Z M 0.6875 0 "/></g></g></g><g fill="#ffffff" fill-opacity="1"><g transform="translate(5.750962, 4.099358)"><g><path d="M 0.53125 0 L 0.140625 0 C 0.0976562 0 0.0820312 -0.0234375 0.09375 -0.078125 L 0.734375 -2.53125 C 0.753906 -2.582031 0.796875 -2.609375 0.859375 -2.609375 L 1.40625 -2.609375 C 1.46875 -2.609375 1.503906 -2.582031 1.515625 -2.53125 L 2.171875 -0.078125 C 2.179688 -0.0234375 2.160156 0 2.109375 0 L 1.71875 0 C 1.695312 0 1.679688 -0.00390625 1.671875 -0.015625 C 1.660156 -0.0234375 1.648438 -0.046875 1.640625 -0.078125 L 1.53125 -0.53125 L 0.734375 -0.53125 L 0.625 -0.078125 C 0.613281 -0.046875 0.601562 -0.0234375 0.59375 -0.015625 C 0.582031 -0.00390625 0.5625 0 0.53125 0 Z M 1.125 -2.125 L 0.828125 -0.953125 L 1.4375 -0.953125 L 1.140625 -2.125 Z M 1.125 -2.125 "/></g></g></g><g fill="#ffffff" fill-opacity="1"><g transform="translate(8.262847, 4.099358)"><g><path d="M 0.6875 0 L 0.34375 0 C 0.289062 0 0.265625 -0.0234375 0.265625 -0.078125 L 0.265625 -2.53125 C 0.265625 -2.582031 0.289062 -2.609375 0.34375 -2.609375 L 0.65625 -2.609375 C 0.707031 -2.609375 0.742188 -2.59375 0.765625 -2.5625 L 1.59375 -1.015625 L 1.609375 -1.015625 L 1.609375 -2.53125 C 1.609375 -2.582031 1.632812 -2.609375 1.6875 -2.609375 L 2.03125 -2.609375 C 2.082031 -2.609375 2.109375 -2.582031 2.109375 -2.53125 L 2.109375 -0.078125 C 2.109375 -0.0234375 2.082031 0 2.03125 0 L 1.734375 0 C 1.671875 0 1.625 -0.0234375 1.59375 -0.078125 L 0.78125 -1.59375 L 0.765625 -1.59375 L 0.765625 -0.078125 C 0.765625 -0.0234375 0.738281 0 0.6875 0 Z M 0.6875 0 "/></g></g></g></g></g></svg>